<svg xmlns="http://www.w3.org/2000/svg" viewBox="0 0 150 150" width="150" height="150">
<!-- generated by scripts/thumbs.py | placeholder portrait -->
<rect width="150" height="150" fill="#120f1f"/>
<g stroke-linecap="round" stroke-linejoin="round">
<circle cx="75" cy="56" r="6" fill="none" stroke="#ffc07a" stroke-width="0.75" stroke-opacity="0.9"/>
<circle cx="75" cy="56" r="12" fill="none" stroke="#ff9a3d" stroke-width="0.75" stroke-opacity="0.9"/>
<circle cx="75" cy="56" r="18" fill="none" stroke="#5dffa6" stroke-width="1"/>
<circle cx="75" cy="56" r="24" fill="none" stroke="#ff7a1a" stroke-width="0.75" stroke-opacity="0.9"/>
<circle cx="75" cy="56" r="30" fill="none" stroke="#c4540c" stroke-width="0.75" stroke-opacity="0.9"/>
<path d="M13 178 13.1 173.9 13.5 169.9 14.2 165.9 15.1 162 16.3 158.1 17.7 154.3 19.4 150.6 21.3 147 23.4 143.6 25.8 140.3 28.4 137.1 31.2 134.2 34.1 131.4 37.3 128.8 40.6 126.4 44 124.3 47.6 122.4 51.3 120.7 55.1 119.3 59 118.1 62.9 117.2 66.9 116.5 70.9 116.1 75 116 79.1 116.1 83.1 116.5 87.1 117.2 91 118.1 94.9 119.3 98.7 120.7 102.4 122.4 106 124.3 109.4 126.4 112.7 128.8 115.9 131.4 118.8 134.2 121.6 137.1 124.2 140.3 126.6 143.6 128.7 147 130.6 150.6 132.3 154.3 133.7 158.1 134.9 162 135.8 165.9 136.5 169.9 136.9 173.9 137 178" fill="none" stroke="#ffc07a" stroke-width="0.85" stroke-opacity="0.95"/>
<path d="M3 178 3.2 173.3 3.6 168.6 4.4 164 5.5 159.4 6.8 154.9 8.5 150.4 10.4 146.2 12.6 142 15.1 138 17.9 134.2 20.9 130.5 24.1 127.1 27.5 123.9 31.2 120.9 35 118.1 39 115.6 43.2 113.4 47.4 111.5 51.9 109.8 56.4 108.5 61 107.4 65.6 106.6 70.3 106.2 75 106 79.7 106.2 84.4 106.6 89 107.4 93.6 108.5 98.1 109.8 102.6 111.5 106.8 113.4 111 115.6 115 118.1 118.8 120.9 122.5 123.9 125.9 127.1 129.1 130.5 132.1 134.2 134.9 138 137.4 142 139.6 146.2 141.5 150.4 143.2 154.9 144.5 159.4 145.6 164 146.4 168.6 146.8 173.3 147 178" fill="none" stroke="#ff9a3d" stroke-width="0.85" stroke-opacity="0.95"/>
<path d="M-7 178 -6.8 172.6 -6.3 167.3 -5.4 162 -4.2 156.8 -2.6 151.6 -0.8 146.6 1.5 141.7 4 137 6.8 132.4 9.9 128.1 13.3 123.9 17 120 20.9 116.3 25.1 112.9 29.4 109.8 34 107 38.7 104.5 43.6 102.2 48.6 100.4 53.8 98.8 59 97.6 64.3 96.7 69.6 96.2 75 96 80.4 96.2 85.7 96.7 91 97.6 96.2 98.8 101.4 100.4 106.4 102.2 111.3 104.5 116 107 120.6 109.8 124.9 112.9 129.1 116.3 133 120 136.7 123.9 140.1 128.1 143.2 132.4 146 137 148.5 141.7 150.8 146.6 152.6 151.6 154.2 156.8 155.4 162 156.3 167.3 156.8 172.6 157 178" fill="none" stroke="#ff9a3d" stroke-width="0.85" stroke-opacity="0.95"/>
</g>
</svg>
